<svg xmlns="http://www.w3.org/2000/svg" width="519.873" height="131.596" viewBox="0 0 519.873 131.596">
  <g id="come-together-insignia-blanco" transform="translate(0)">
    <g id="Group_522" data-name="Group 522" transform="translate(0)">
      <path id="Path_1467" data-name="Path 1467" d="M4.175,57.45c0-25.183,18.612-44.79,38.415-44.79a25.083,25.083,0,0,1,16.125,5.968l5.079-5.667h.5l-4.777,24.58h-.6c-.8-12.237-4.883-23.992-18.22-23.992-14.633,0-28.257,19.5-28.257,42.092,0,14.031,6.465,25.575,19.8,25.575,10.248,0,17.512-7.46,23.389-16.924l.693.392C50.743,73.937,43.584,83.4,28.544,83.4,14.6,83.4,4.16,73.153,4.16,57.419Z" transform="translate(-4.16 -8.109)"/>
      <path id="Path_1468" data-name="Path 1468" d="M39.37,58.035c0-10.745,9.947-29.855,25.68-29.855,7.671,0,14.528,5.667,14.528,17.512,0,10.158-9.163,29.764-26.072,29.764-7.369,0-14.136-5.576-14.136-17.422ZM72.616,43.507c0-10.851-3.783-14.633-8.063-14.633-10.851,0-18.205,17.813-18.205,31.045,0,10.353,3.391,14.829,8.063,14.829,11.65,0,18.205-18.914,18.205-31.256Z" transform="translate(13.693 -0.239)"/>
      <path id="Path_1469" data-name="Path 1469" d="M122.371,67.388c0-2.381.889-4.883,2.185-8.259l5.878-15.523c1.1-2.984,2.185-6.375,2.185-8.259,0-4.175-3.391-4.777-5.968-4.777-6.465,0-11.348,5.471-14.332,10.248L101.469,74.065H94.807l10.549-31.844a26.25,26.25,0,0,0,1.6-6.872c0-4.175-3.391-4.777-5.968-4.777-7.369,0-12.931,7.158-15.628,12.539L75,74.065H68.344L79.089,42.221c1.6-4.581,2.185-7.565,2.185-9.449,0-2.381-1.3-3.089-2.984-3.089-4.973,0-8.861,5.38-12.147,13.835l-.693-.2c3.587-8.756,6.963-15.131,14.136-15.131,5.169,0,8.259,3.979,6.073,12.433l.2.105C89.834,33.766,96.4,28.19,102.177,28.19c6.661,0,10.549,4.386,9.253,12.343l.2.105c3.677-6.767,10.444-12.433,16.216-12.433,6.872,0,10.353,4.476,10.353,10.549a29.715,29.715,0,0,1-1.884,7.957l-5.576,14.633c-1.3,3.391-2.381,7.159-2.381,8.861,0,2.788,1.989,3.391,3.888,3.391,4.672,0,8.756-5.169,12.147-13.639l.693.2c-3.587,8.861-7.158,15.025-14.227,15.025-4.175,0-8.455-1.688-8.455-7.761Z" transform="translate(26.917 -0.234)"/>
      <path id="Path_1470" data-name="Path 1470" d="M116.76,59.527c0-10.248,9.947-31.347,27.263-31.347,4.476,0,8.861,2.185,8.861,6.661,0,11.544-15.025,16.819-27.971,17.512a46.868,46.868,0,0,0-1.191,9.751c0,6.767,3.18,10.745,8.56,10.745,7.264,0,13.639-6.269,17.708-13.835l.6.3c-6.164,11.74-13.232,16.125-19.8,16.125-5.968,0-14.031-3.285-14.031-15.93Zm30.051-24.083c0-3.391-1.492-6.571-5.079-6.571-6.661,0-13.835,11.243-16.713,23,16.427-1.688,21.792-11.439,21.792-16.427Z" transform="translate(52.934 -0.239)"/>
      <path id="Path_1471" data-name="Path 1471" d="M153.9,81.1a60.526,60.526,0,0,0,8.861-1.191,6.671,6.671,0,0,0,4.386-4.973l16.819-60.7h-5.169c-2.185,0-6.571.105-8.952.392-4.476.6-12.931,11.845-15.221,16.216h-.6L158.9,13.52H216.83l-4.883,17.316h-.6c0-7.158-1.6-15.628-6.073-16.216a81.409,81.409,0,0,0-8.756-.392h-5.169L174.828,74.435c-.693,1.989-.392,3.979,1.688,4.973a51.2,51.2,0,0,0,8.861,1.688l-.106.392H153.82l.105-.392Z" transform="translate(71.725 -7.673)"/>
      <path id="Path_1472" data-name="Path 1472" d="M182.07,58.035c0-10.745,9.947-29.855,25.68-29.855,7.656,0,14.528,5.667,14.528,17.512,0,10.158-9.163,29.764-26.072,29.764C188.837,75.456,182.07,69.88,182.07,58.035Zm33.246-14.528c0-10.851-3.783-14.633-8.063-14.633-10.851,0-18.205,17.813-18.205,31.045,0,10.353,3.391,14.829,8.063,14.829,11.65,0,18.22-18.914,18.22-31.256Z" transform="translate(86.05 -0.239)"/>
      <path id="Path_1473" data-name="Path 1473" d="M202.87,86.4c0-6.767,6.375-11.845,17.316-13.337v-.3c-4.973-.889-9.253-2.487-9.253-6.872,0-5.667,6.872-8.666,10.052-9.66v-.2c-4.777-2.185-7.565-6.164-7.565-10.549,0-9.66,8.168-17.316,18.808-17.316a14.542,14.542,0,0,1,10.158,3.888c2.788-1.492,6.269-3.888,9.66-3.888a4.185,4.185,0,0,1,4.084,4.175,4.028,4.028,0,0,1-4.084,4.28c-2.894,0-3.587-2.592-3.587-6.164a12.067,12.067,0,0,0-6.073,2.185v.5a15.288,15.288,0,0,1,2.291,7.264c0,9.947-7.37,16.713-16.819,16.713h-7.369c-2.984.8-5.079,2.984-5.169,5.38-.2,3.677,2.894,4.883,12.735,5.471,2.984.2,7.761.8,9.751,1.1,6.465.995,9.253,3.979,9.253,10.248,0,9.057-10.353,18.009-26.569,18.009-11.152,0-17.617-4.581-17.617-10.941Zm38.822-5.079c0-2.185-.889-5.275-3.888-5.968-5.275-1.191-13.639-1.6-17.617-1.793-5.968,1.492-11.152,6.073-11.152,12.433,0,5.576,4.084,10.549,13.94,10.549C235.317,96.545,241.692,89.477,241.692,81.324ZM238.708,37.83c0-5.471-2.185-9.057-7.068-9.057-7.761,0-11.845,12.237-11.845,17.512,0,7.159,2.984,10.248,7.867,10.248,7.46,0,11.047-12.644,11.047-18.718Z" transform="translate(96.596 -0.244)"/>
      <path id="Path_1474" data-name="Path 1474" d="M232.32,59.527c0-10.248,9.947-31.347,27.278-31.347,4.476,0,8.861,2.185,8.861,6.661,0,11.544-15.025,16.819-27.971,17.512A46.867,46.867,0,0,0,239.3,62.1c0,6.767,3.18,10.745,8.56,10.745,7.264,0,13.639-6.269,17.708-13.835l.6.3c-6.164,11.74-13.232,16.125-19.8,16.125-5.968,0-14.031-3.285-14.031-15.93Zm30.051-24.083c0-3.391-1.492-6.571-5.079-6.571-6.661,0-13.835,11.243-16.713,23,16.427-1.688,21.792-11.439,21.792-16.427Z" transform="translate(111.529 -0.239)"/>
      <path id="Path_1475" data-name="Path 1475" d="M255.5,72.139a22.532,22.532,0,0,1,.995-5.772c1.191-4.476,8.56-28.272,9.253-30.548h-9.66l.5-1.386h9.66L270.631,19H276.9l-4.581,15.432h12.735l-.5,1.386H271.912c-2.683,9.057-8.063,26.871-8.952,30.352-.8,2.984-1.884,6.571-1.884,8.063,0,3.18,1.688,4.084,3.677,4.084,4.777,0,9.555-5.471,12.84-13.94l.693.2c-3.587,8.861-7.867,15.221-14.829,15.221-4.28,0-7.957-1.6-7.957-7.656Z" transform="translate(123.282 -4.894)"/>
      <path id="Path_1476" data-name="Path 1476" d="M297.164,76.794c0-2.381.889-4.883,2.185-8.259l5.877-15.523c1.1-2.984,2.185-6.375,2.185-8.259,0-4.175-3.391-4.777-5.968-4.777-7.37,0-13.036,7.264-15.628,12.539L276.065,83.47H269.69L289.3,21.365a21.878,21.878,0,0,0,1.387-6.661c0-2.185-1.688-2.894-3.888-3.18-2.592-.3-4.084-.3-6.465-.392v-.5l19.305-.995L286.6,49.155l.2.105c3.783-5.772,9.449-11.65,15.824-11.65,7.264,0,10.353,5.079,10.353,10.549a28.341,28.341,0,0,1-1.884,7.957l-5.576,14.633c-1.3,3.481-2.381,7.159-2.381,8.861,0,2.788,1.989,3.391,3.888,3.391,4.672,0,8.756-5.169,12.147-13.639l.693.2c-3.587,8.861-7.158,15.025-14.227,15.025-4.175,0-8.455-1.688-8.455-7.761Z" transform="translate(130.478 -9.64)"/>
      <path id="Path_1477" data-name="Path 1477" d="M301.52,59.527c0-10.248,9.947-31.347,27.278-31.347,4.476,0,8.862,2.185,8.862,6.661,0,11.544-15.025,16.819-27.971,17.512A46.869,46.869,0,0,0,308.5,62.1c0,6.767,3.18,10.745,8.56,10.745,7.264,0,13.639-6.269,17.708-13.835l.6.3c-6.164,11.74-13.232,16.125-19.8,16.125-5.968,0-14.031-3.285-14.031-15.93Zm30.051-24.083c0-3.391-1.492-6.571-5.079-6.571-6.661,0-13.835,11.243-16.713,23C326.206,50.183,331.571,40.432,331.571,35.444Z" transform="translate(146.617 -0.239)"/>
      <path id="Path_1478" data-name="Path 1478" d="M337.084,42.211a32.3,32.3,0,0,0,1.884-8.952c0-2.487-1.1-3.587-2.788-3.587-4.672,0-8.952,5.772-12.147,13.94l-.6-.3c3.587-8.756,7.068-15.131,14.136-15.131,5.169,0,8.259,4.28,6.073,12.644l.2.105c1.884-4.084,7.158-12.735,12.84-12.735a5.143,5.143,0,0,1,5.471,5.169c0,2.487-1.492,5.576-4.581,5.576s-4.385-1.884-4.174-3.888c.2-1.989,2.095-2.894,2.185-3.587.106-.693-.3-1.1-1.1-1.1-3.285,0-8.666,7.656-11.348,13.232l-9.449,30.458h-6.571l9.947-31.844Z" transform="translate(157.727 -0.239)"/>
    </g>
    <g id="Group_525" data-name="Group 525" transform="translate(98.486 112.019)">
      <g id="Group_523" data-name="Group 523" transform="translate(28.333 5.139)">
        <path id="Path_1479" data-name="Path 1479" d="M90.842,87.52v5.787a1.92,1.92,0,0,0,.5,1.507,1.87,1.87,0,0,0,1.206.467,1.921,1.921,0,0,0,1.176-.422,2.146,2.146,0,0,0,.573-1.778V87.52h2.532v5.606a3.97,3.97,0,0,1-1.1,3.165A4.226,4.226,0,0,1,92.5,97.512a4.362,4.362,0,0,1-3.24-1.175,4.583,4.583,0,0,1-.949-3.21V87.52Z" transform="translate(-88.31 -87.309)"/>
        <path id="Path_1480" data-name="Path 1480" d="M95.51,97.3V87.53h2.532l4.672,5.983V87.53h2.532V97.3h-2.532l-4.672-5.983V97.3Z" transform="translate(-84.659 -87.304)"/>
        <path id="Path_1481" data-name="Path 1481" d="M106.062,87.52v7.611h3.044v2.155H103.53V87.52Z" transform="translate(-80.593 -87.309)"/>
        <path id="Path_1482" data-name="Path 1482" d="M113.836,89.67h-3.014V91.3h2.848v2.155h-2.848v1.688h3.014V97.3H108.29V87.53h5.546v2.155Z" transform="translate(-78.179 -87.304)"/>
        <path id="Path_1483" data-name="Path 1483" d="M119.507,95.653h-3.542L115.3,97.3H112.62l3.753-9.766h2.773l3.677,9.766H120.11l-.6-1.643Zm-.678-1.929-1.1-3.165-1.07,3.165Z" transform="translate(-75.984 -87.304)"/>
        <path id="Path_1484" data-name="Path 1484" d="M120.875,94.433a3.413,3.413,0,0,0,2.245.995,1.331,1.331,0,0,0,.98-.332.862.862,0,0,0,.256-.618.757.757,0,0,0-.286-.588,3.579,3.579,0,0,0-1.266-.512l-.663-.211a3.217,3.217,0,0,1-1.4-.784,2.476,2.476,0,0,1-.558-1.733,3.173,3.173,0,0,1,.889-2.351,3.457,3.457,0,0,1,2.5-.919,6.849,6.849,0,0,1,3.014.784l-1.01,1.974a2.577,2.577,0,0,0-1.673-.663,1.211,1.211,0,0,0-.829.286.712.712,0,0,0-.256.527.633.633,0,0,0,.136.437,1.68,1.68,0,0,0,.844.437l.784.241a3.771,3.771,0,0,1,1.778.965,2.318,2.318,0,0,1,.633,1.748,3.328,3.328,0,0,1-.919,2.456,3.8,3.8,0,0,1-2.894.995,5.3,5.3,0,0,1-1.914-.316,6.8,6.8,0,0,1-1.477-.769l1.085-2.05Z" transform="translate(-72.348 -87.38)"/>
        <path id="Path_1485" data-name="Path 1485" d="M128.362,91.167h3.662V87.52h2.547v9.766h-2.547V93.337h-3.662v3.948H125.83V87.52h2.532Z" transform="translate(-69.285 -87.309)"/>
        <path id="Path_1486" data-name="Path 1486" d="M139.642,89.675v7.611H137.11V89.675h-2.08V87.52h6.691v2.155Z" transform="translate(-64.621 -87.309)"/>
        <path id="Path_1487" data-name="Path 1487" d="M142.952,91.167h3.662V87.52h2.547v9.766h-2.547V93.337h-3.662v3.948H140.42V87.52h2.532Z" transform="translate(-61.888 -87.309)"/>
        <path id="Path_1488" data-name="Path 1488" d="M153.326,89.67h-3.014V91.3h2.848v2.155h-2.848v1.688h3.014V97.3H147.78V87.53h5.546v2.155Z" transform="translate(-58.156 -87.304)"/>
        <path id="Path_1489" data-name="Path 1489" d="M155.975,94.433a3.413,3.413,0,0,0,2.246.995,1.331,1.331,0,0,0,.98-.332.862.862,0,0,0,.256-.618.757.757,0,0,0-.286-.588,3.58,3.58,0,0,0-1.266-.512l-.663-.211a3.217,3.217,0,0,1-1.4-.784,2.476,2.476,0,0,1-.558-1.733,3.173,3.173,0,0,1,.889-2.351,3.457,3.457,0,0,1,2.5-.919,6.849,6.849,0,0,1,3.014.784l-1.01,1.974A2.577,2.577,0,0,0,159,89.475a1.211,1.211,0,0,0-.829.286.712.712,0,0,0-.256.527.633.633,0,0,0,.136.437,1.68,1.68,0,0,0,.844.437l.784.241a3.771,3.771,0,0,1,1.778.965,2.318,2.318,0,0,1,.633,1.748,3.328,3.328,0,0,1-.919,2.456,3.8,3.8,0,0,1-2.894.995,5.3,5.3,0,0,1-1.914-.316,6.8,6.8,0,0,1-1.477-.769l1.085-2.05Z" transform="translate(-54.55 -87.38)"/>
        <path id="Path_1490" data-name="Path 1490" d="M166.476,89.67h-3.014V91.3h2.848v2.155h-2.848v1.688h3.014V97.3H160.93V87.53h5.546v2.155Z" transform="translate(-51.488 -87.304)"/>
        <path id="Path_1491" data-name="Path 1491" d="M165.87,97.3V87.53H168.4l4.672,5.983V87.53h2.532V97.3h-2.532L168.4,91.313V97.3Z" transform="translate(-48.983 -87.304)"/>
        <path id="Path_1492" data-name="Path 1492" d="M174.685,94.433a3.413,3.413,0,0,0,2.246.995,1.331,1.331,0,0,0,.98-.332.862.862,0,0,0,.256-.618.757.757,0,0,0-.286-.588,3.58,3.58,0,0,0-1.266-.512l-.663-.211a3.217,3.217,0,0,1-1.4-.784,2.476,2.476,0,0,1-.558-1.733,3.173,3.173,0,0,1,.889-2.351,3.457,3.457,0,0,1,2.5-.919,6.849,6.849,0,0,1,3.014.784l-1.01,1.974a2.577,2.577,0,0,0-1.673-.663,1.211,1.211,0,0,0-.829.286.712.712,0,0,0-.256.527.633.633,0,0,0,.136.437,1.68,1.68,0,0,0,.844.437l.784.241a3.771,3.771,0,0,1,1.778.965,2.318,2.318,0,0,1,.633,1.748,3.328,3.328,0,0,1-.919,2.456,3.8,3.8,0,0,1-2.894.995,5.3,5.3,0,0,1-1.914-.316,6.8,6.8,0,0,1-1.477-.769l1.085-2.05Z" transform="translate(-45.064 -87.38)"/>
        <path id="Path_1493" data-name="Path 1493" d="M185.186,89.67h-3.014V91.3h2.848v2.155h-2.848v1.688h3.014V97.3H179.64V87.53h5.546v2.155Z" transform="translate(-42.001 -87.304)"/>
        <path id="Path_1494" data-name="Path 1494" d="M195.993,96.136a5.867,5.867,0,0,1-7.716,0,5.113,5.113,0,0,1,0-7.309,5.867,5.867,0,0,1,7.716,0,5.113,5.113,0,0,1,0,7.309Zm-5.832-5.531a2.675,2.675,0,0,0-.769,1.914,2.545,2.545,0,0,0,.769,1.824,2.784,2.784,0,0,0,1.974.784,2.651,2.651,0,0,0,1.959-.769,2.719,2.719,0,0,0,.784-1.869,2.662,2.662,0,0,0-.784-1.869,2.9,2.9,0,0,0-3.933,0Z" transform="translate(-38.401 -87.38)"/>
        <path id="Path_1495" data-name="Path 1495" d="M200.761,89.67H197.7V91.3h2.788v2.155H197.7V97.3H195.17V87.53h5.591v2.155Z" transform="translate(-34.126 -87.304)"/>
        <path id="Path_1496" data-name="Path 1496" d="M209.7,97.08a6.12,6.12,0,0,1-2.2.482,5.361,5.361,0,0,1-3.783-1.462,5.139,5.139,0,0,1-1.477-3.557,5.12,5.12,0,0,1,5.169-5.124,6.139,6.139,0,0,1,2.291.5v3.029a2.726,2.726,0,0,0-2.215-1.07,2.49,2.49,0,0,0-1.763.648,2.7,2.7,0,0,0-.844,2,2.642,2.642,0,0,0,.784,1.9,2.752,2.752,0,0,0,1.824.678,2.878,2.878,0,0,0,2.215-1.025v3Z" transform="translate(-30.542 -87.36)"/>
        <path id="Path_1497" data-name="Path 1497" d="M214,89.67h-3.014V91.3h2.848v2.155h-2.848v1.688H214V97.3H208.45V87.53H214v2.155Z" transform="translate(-27.393 -87.304)"/>
        <path id="Path_1498" data-name="Path 1498" d="M215.932,87.52v7.611h3.044v2.155H213.4V87.52Z" transform="translate(-24.883 -87.309)"/>
        <path id="Path_1499" data-name="Path 1499" d="M223.706,89.67h-3.014V91.3h2.848v2.155h-2.848v1.688h3.014V97.3H218.16V87.53h5.546v2.155Z" transform="translate(-22.469 -87.304)"/>
        <path id="Path_1500" data-name="Path 1500" d="M223.11,97.3V87.53h3.783a2.732,2.732,0,0,1,2.14.769,2.649,2.649,0,0,1,.6,1.824,2.7,2.7,0,0,1-.271,1.206,1.5,1.5,0,0,1-.8.754,2.345,2.345,0,0,1,1.326.588,2.471,2.471,0,0,1,.663,1.793,2.6,2.6,0,0,1-.723,1.914,3.662,3.662,0,0,1-2.652.919H223.11Zm2.532-5.923h.467a1.359,1.359,0,0,0,.965-.3.936.936,0,0,0,.241-.648.993.993,0,0,0-.241-.663,1.329,1.329,0,0,0-.965-.286h-.467Zm0,3.933h.573a2.133,2.133,0,0,0,1.567-.392.934.934,0,0,0,.211-.633,1.009,1.009,0,0,0-.256-.708,2.393,2.393,0,0,0-1.567-.316h-.527Z" transform="translate(-19.959 -87.304)"/>
        <path id="Path_1501" data-name="Path 1501" d="M233.264,87.52a3.15,3.15,0,0,1,2.381.859,3.2,3.2,0,0,1,.829,2.2,2.569,2.569,0,0,1-2.125,2.713l3.059,3.994h-3.15l-2.426-3.753v3.753H229.3V87.52h3.948Zm-1.417,4.386h.482a1.978,1.978,0,0,0,1.236-.392,1.192,1.192,0,0,0,.316-.814,1.138,1.138,0,0,0-.332-.814,1.712,1.712,0,0,0-1.221-.377h-.482v2.411Z" transform="translate(-16.821 -87.309)"/>
        <path id="Path_1502" data-name="Path 1502" d="M241.867,95.653h-3.542l-.663,1.643H234.98l3.753-9.766h2.773l3.677,9.766H242.47Zm-.678-1.929-1.1-3.165-1.07,3.165Z" transform="translate(-13.941 -87.304)"/>
        <path id="Path_1503" data-name="Path 1503" d="M246.4,89.675v7.611H243.87V89.675h-2.08V87.52h6.691v2.155Z" transform="translate(-10.488 -87.309)"/>
        <path id="Path_1504" data-name="Path 1504" d="M249.7,87.52v9.766H247.17V87.52Z" transform="translate(-7.76 -87.309)"/>
        <path id="Path_1505" data-name="Path 1505" d="M259.363,96.136a5.867,5.867,0,0,1-7.716,0,5.113,5.113,0,0,1,0-7.309,5.867,5.867,0,0,1,7.716,0,5.113,5.113,0,0,1,0,7.309Zm-5.832-5.531a2.675,2.675,0,0,0-.769,1.914,2.545,2.545,0,0,0,.769,1.824,2.784,2.784,0,0,0,1.974.784,2.651,2.651,0,0,0,1.959-.769,2.719,2.719,0,0,0,.784-1.869,2.662,2.662,0,0,0-.784-1.869,2.9,2.9,0,0,0-3.933,0Z" transform="translate(-6.269 -87.38)"/>
        <path id="Path_1506" data-name="Path 1506" d="M258.53,97.3V87.53h2.532l4.672,5.983V87.53h2.532V97.3h-2.532l-4.672-5.983V97.3Z" transform="translate(-2 -87.304)"/>
      </g>
      <g id="Group_524" data-name="Group 524">
        <path id="Path_1507" data-name="Path 1507" d="M285.261,94.062c-1.251.286-1.3,1.432-1.3,2.2v3.873a4.017,4.017,0,0,1-.663,2.637,2.942,2.942,0,0,1-2.246.754h-.2v-.874a2.186,2.186,0,0,0,1.718-.512,3.061,3.061,0,0,0,.422-1.824V96.323a2.388,2.388,0,0,1,1.4-2.547c-1.115-.392-1.4-1.115-1.4-2.456V87.054a2.379,2.379,0,0,0-.422-1.643,2.184,2.184,0,0,0-1.718-.527V84.01h.256a2.509,2.509,0,0,1,2.833,3v4.265c0,.949.09,1.869,1.3,2.2v.633Z" transform="translate(37.656 -83.95)"/>
        <path id="Path_1508" data-name="Path 1508" d="M69.525,93.434c1.206-.332,1.3-1.251,1.3-2.2V86.969a2.509,2.509,0,0,1,2.833-3h.256v.874a2.471,2.471,0,0,0-1.718.527,2.4,2.4,0,0,0-.422,1.643v4.265c0,1.341-.286,2.065-1.4,2.456a2.388,2.388,0,0,1,1.4,2.547v3.994a3.061,3.061,0,0,0,.422,1.824,2.442,2.442,0,0,0,1.718.512v.874h-.2a2.885,2.885,0,0,1-2.245-.754,4.017,4.017,0,0,1-.663-2.637V96.222c0-.769-.045-1.914-1.3-2.2v-.633Z" transform="translate(-69.51 -83.97)"/>
      </g>
    </g>
  </g>
</svg>
